<svg width="24" height="24" viewBox="0 0 24 24" fill="none" xmlns="http://www.w3.org/2000/svg">
<g clip-path="url(#clip0_2706_21076)">
<path d="M24 12C24 15.3136 21.3136 18 18 18V6C21.3136 6 24 8.68641 24 12ZM12 0C8.68641 0 6 2.68641 6 6H18C18 2.68641 15.3136 0 12 0ZM0 12C0 15.3136 2.68641 18 6 18V6C2.68641 6 0 8.68641 0 12ZM12 24C15.3136 24 18 21.3136 18 18H6C6 21.3136 8.68641 24 12 24Z" fill="currentColor"/>
</g>
<defs>
<clipPath id="clip0_2706_21076">
<rect width="24" height="24" fill="white"/>
</clipPath>
</defs>
</svg>
