<svg xmlns="http://www.w3.org/2000/svg" version="1.1" xmlns:xlink="http://www.w3.org/1999/xlink" width="900" height="900"><svg id="SvgjsSvg1013" xmlns="http://www.w3.org/2000/svg" version="1.1" viewBox="0 0 900 900">
  <!-- Generator: Adobe Illustrator 29.7.1, SVG Export Plug-In . SVG Version: 2.1.1 Build 8)  -->
  <defs>
    <style>
      .st0 {
        fill: #898989;
      }
    </style>
  </defs>
  <path class="st0" d="M871.69,450c0,116.44-94.4,210.84-210.84,210.84V239.16c116.44,0,210.84,94.4,210.84,210.84ZM450,28.31c-116.44,0-210.84,94.4-210.84,210.84h421.69c0-116.44-94.4-210.84-210.84-210.84ZM28.31,450c0,116.44,94.4,210.84,210.84,210.84V239.16c-116.44,0-210.84,94.4-210.84,210.84ZM450,871.69c116.44,0,210.84-94.4,210.84-210.84H239.16c0,116.44,94.4,210.84,210.84,210.84Z"></path>
</svg><style>@media (prefers-color-scheme: light) { :root { filter: none; } }
@media (prefers-color-scheme: dark) { :root { filter: contrast(0.7407407407407407) brightness(2); } }
</style></svg>